<svg xmlns="http://www.w3.org/2000/svg" viewBox="0 0 100 100" fill="currentColor">
  <path d="M50,0C22.39,0,0,22.39,0,50s22.39,50,50,50,50-22.39,50-50S77.61,0,50,0ZM54.83,91.05v-6.55c0-2.39-1.94-4.33-4.33-4.33s-4.33,1.94-4.33,4.33v6.65c-19.41-1.79-34.96-17.05-37.21-36.32h7.55c2.39,0,4.33-1.94,4.33-4.33s-1.94-4.33-4.33-4.33h-7.65C10.67,26.43,26.43,10.67,46.17,8.85v6.65c0,2.39,1.94,4.33,4.33,4.33s4.33-1.94,4.33-4.33v-6.55c19.27,2.25,34.53,17.81,36.32,37.21h-6.65c-2.39,0-4.33,1.94-4.33,4.33s1.94,4.33,4.33,4.33h6.55c-2.22,18.94-17.28,34-36.21,36.21Z"/>
  <path d="M72.29,25.56c-.44,0-.89.09-1.34.3l-29.76,13.78c-.68.31-1.22.86-1.54,1.54l-13.78,29.76c-1.03,2.21.7,4.49,2.85,4.49.44,0,.89-.09,1.34-.3l29.76-13.78c.68-.31,1.22-.86,1.54-1.54l13.78-29.76c1.03-2.21-.7-4.49-2.85-4.49ZM53.8,53.8l-12.29,5.69,5.69-12.29,12.29-5.69-5.69,12.29Z"/>
</svg>