<svg viewBox="0 0 417 417" xmlns="http://www.w3.org/2000/svg">
    <g transform="matrix(1,0,0,1,-6249.75,-994.881)">
        <g id="download" transform="matrix(1,0,0,1,-607.227,994.881)">
            <g transform="matrix(-2.18251,2.18251,2.3424,2.3424,7064.65,328.062)">
                <path fill="currentColor" d="M-15.104,-6.289L-59.371,-6.289C-63.096,-6.289 -66.121,-3.471 -66.121,0C-66.121,3.471 -63.096,6.289 -59.371,6.289L0,6.289C3.728,6.289 6.75,3.473 6.75,-0L6.75,-55.318C6.75,-58.789 3.725,-61.607 0,-61.607C-3.725,-61.607 -6.75,-58.789 -6.75,-55.318L-6.75,-14.515L-65.271,-69.041C-67.641,-71.25 -71.491,-71.25 -73.862,-69.041C-76.232,-66.832 -76.232,-63.245 -73.862,-61.036L-15.104,-6.289ZM60.046,-19.881C62.417,-22.09 62.417,-25.677 60.046,-27.886C57.676,-30.095 53.826,-30.095 51.455,-27.886L-29.692,47.722C-32.063,49.931 -32.063,53.518 -29.692,55.727C-27.321,57.935 -23.471,57.935 -21.101,55.727L60.046,-19.881Z"/>
            </g>
        </g>
    </g>
</svg>
