<svg viewBox="0 0 417 417" version="1.1" xmlns="http://www.w3.org/2000/svg" fill="currentColor">
    <path d="M208.333,0C93.275,0 -0,93.275 -0,208.333C-0,323.392 93.275,416.667 208.333,416.667C323.392,416.667 416.667,323.392 416.667,208.333C416.667,93.275 323.392,0 208.333,0M208.333,36.096C303.304,36.096 380.571,113.362 380.571,208.333C380.571,303.304 303.304,380.571 208.333,380.571C113.362,380.571 36.096,303.304 36.096,208.333C36.096,113.362 113.362,36.096 208.333,36.096" style="fill-rule:nonzero;"/>
    <path d="M181.25,115.115C181.25,100.167 193.386,88.032 208.333,88.032C223.281,88.032 235.417,100.167 235.417,115.115L235.417,207.666C235.417,222.614 223.281,234.75 208.333,234.75C193.386,234.75 181.25,222.614 181.25,207.666L181.25,115.115Z"/>
    <circle cx="208.333" cy="297.46" r="36.514"/>
    <path d="M208.333,260.446C228.762,260.446 245.347,277.032 245.347,297.46C245.347,317.889 228.762,334.474 208.333,334.474C187.905,334.474 171.319,317.889 171.319,297.46C171.319,277.032 187.905,260.446 208.333,260.446ZM208.333,261.446C188.457,261.446 172.319,277.583 172.319,297.46C172.319,317.337 188.457,333.474 208.333,333.474C228.21,333.474 244.347,317.337 244.347,297.46C244.347,277.583 228.21,261.446 208.333,261.446Z" style="fill:none;"/>
</svg>
