<svg xmlns="http://www.w3.org/2000/svg" viewBox="0 0 100 100" fill="currentColor">
  <path d="M84.36,15.24h-20.11c-4.02,0-7.88-1.54-10.78-4.31l-6.94-6.61c-2.91-2.77-6.77-4.31-10.78-4.31H15.64C7,0,0,7,0,15.64v68.72c0,8.64,7,15.64,15.64,15.64h68.72c8.64,0,15.64-7,15.64-15.64V30.88c0-8.64-7-15.64-15.64-15.64ZM92.03,84.36c0,4.23-3.44,7.67-7.67,7.67H15.64c-4.23,0-7.67-3.44-7.67-7.67v-43.38h84.06v43.38ZM7.97,33.02V15.64c0-4.23,3.44-7.67,7.67-7.67h20.11c1.98,0,3.86.75,5.29,2.12l6.94,6.61c4.41,4.2,10.19,6.51,16.28,6.51h20.11c4.23,0,7.67,3.44,7.67,7.67v2.14H7.97Z"/>
</svg>