<svg viewBox="0 0 417 417" xmlns="http://www.w3.org/2000/svg" fill="currentColor">
    <path d="M127.522,10.128l265.31,262.239c5.395,5.333 7.045,13.39 4.181,20.414c-2.864,7.024 -9.678,11.631 -17.263,11.671l-155.619,0.823l-98.332,104.098c-5.288,5.598 -13.462,7.394 -20.609,4.527c-7.148,-2.866 -11.816,-9.811 -11.771,-17.512l2.172,-373.034c0.044,-7.543 4.605,-14.326 11.575,-17.213c6.969,-2.887 14.99,-1.316 20.356,3.987Zm5.309,57.975l-1.636,280.947l71.185,-75.358c3.518,-3.725 8.407,-5.847 13.531,-5.874l118.341,-0.626l-201.421,-199.089Z"/>
</svg>
