<svg xmlns="http://www.w3.org/2000/svg" viewBox="0 0 100 100" fill="currentColor">
  <path d="M85.21,0H14.79C6.62,0,0,6.62,0,14.79v70.41c0,8.17,6.62,14.79,14.79,14.79h70.41c8.17,0,14.79-6.62,14.79-14.79V14.79c0-8.17-6.62-14.79-14.79-14.79ZM14.79,8h70.41c3.75,0,6.79,3.05,6.79,6.79v53.43c-2.38-1.86-5.22-4.14-7.97-6.49-8.76-7.51-14.7-2.83-20.98,2.13l-1.23.97c-6.77,5.3-7.7,4.37-8.69,3.38l-11.04-11.04c-1.38-1.38-3.46-3.46-6.49-4.08-3.44-.71-6.91.66-10.33,4.08-3.22,3.22-11.36,10.14-17.27,15.09V14.79c0-3.75,3.05-6.79,6.79-6.79ZM85.21,92H14.79c-3.75,0-6.79-3.05-6.79-6.79v-2.53c4.75-3.93,18.28-15.21,22.92-19.85,1.56-1.56,2.62-1.99,3.06-1.91.69.14,1.79,1.25,2.45,1.91l11.04,11.04c6.93,6.93,14.66.88,19.28-2.74l1.26-.99c6.65-5.25,7.26-5.38,10.81-2.33,5.42,4.64,11.05,8.91,13.17,10.49v6.91c0,3.75-3.05,6.79-6.79,6.79Z"/>
  <path d="M64.29,49c8.13,0,14.71-6.59,14.71-14.71s-6.59-14.71-14.71-14.71-14.71,6.59-14.71,14.71,6.59,14.71,14.71,14.71ZM64.29,25.57c4.81,0,8.71,3.91,8.71,8.71s-3.91,8.71-8.71,8.71-8.71-3.91-8.71-8.71,3.91-8.71,8.71-8.71Z"/>
</svg>