<svg viewBox="0 0 417 417" version="1.1" xmlns="http://www.w3.org/2000/svg" fill="currentColor">
    <path d="M207.885,0.121c114.394,-0 207.269,92.874 207.269,207.269c-0,114.395 -92.875,207.269 -207.269,207.269c-114.395,-0 -207.269,-92.874 -207.269,-207.269c-0,-114.395 92.874,-207.269 207.269,-207.269Zm-0,37.5c-93.699,-0 -169.769,76.071 -169.769,169.769c-0,93.698 76.07,169.769 169.769,169.769c93.698,-0 169.769,-76.071 169.769,-169.769c-0,-93.698 -76.071,-169.769 -169.769,-169.769Z"/>
    <path d="M176.491,144.07c-4.695,9.863 -16.514,14.059 -26.377,9.364c-9.863,-4.695 -14.059,-16.514 -9.364,-26.377c8.173,-17.169 35.316,-40.602 65.176,-40.874c24.152,-0.22 42.364,7.868 54.899,20.18c12.821,12.594 19.965,29.981 20.547,49.508c0.752,25.198 -11.221,38.237 -26.826,49.556c-11.258,8.166 -27.042,13.974 -26.266,38.207c0.349,10.917 -8.23,20.065 -19.148,20.415c-10.918,0.349 -20.066,-8.231 -20.415,-19.148c-1.208,-37.711 16.478,-53.164 34.734,-66.008c3.76,-2.645 7.539,-5.126 10.953,-7.853c4.1,-3.277 7.611,-6.99 7.402,-13.989c-0.261,-8.773 -2.958,-16.79 -8.719,-22.448c-6.047,-5.941 -15.148,-8.944 -26.801,-8.838c-13.573,0.123 -26.08,10.501 -29.795,18.305Z"/>
    <circle cx="210.09" cy="315.535" r="31.479"/>
</svg>
