<svg viewBox="0 0 417 417">
    <path stroke-width="25" stroke="inherit" d="M188.66,36.9C190.349,27.357 198.642,20.402 208.333,20.402C218.024,20.402 226.318,27.357 228.007,36.9L245.317,134.71C246.932,143.836 251.313,152.246 257.867,158.8C264.421,165.353 272.83,169.735 281.957,171.35L379.767,188.66C389.309,190.349 396.264,198.642 396.264,208.333C396.264,218.024 389.309,226.318 379.767,228.007L281.957,245.317C272.83,246.932 264.421,251.313 257.867,257.867C251.313,264.421 246.932,272.83 245.317,281.957L228.007,379.767C226.318,389.309 218.024,396.264 208.333,396.264C198.642,396.264 190.349,389.309 188.66,379.767L171.35,281.957C169.735,272.83 165.353,264.421 158.8,257.867C152.246,251.313 143.836,246.932 134.71,245.317L36.9,228.007C27.357,226.318 20.402,218.024 20.402,208.333C20.402,198.642 27.357,190.349 36.9,188.66L134.71,171.35C143.836,169.735 152.246,165.353 158.8,158.8C165.353,152.246 169.735,143.836 171.35,134.71L188.66,36.9Z"/>
</svg>
