<svg viewBox="0 0 417 417">
    <path fill="currentColor" d="M403.979,138.314L215.852,241.799C210.876,244.537 204.847,244.551 199.857,241.837L14.316,140.938C8.964,138.028 5.626,132.429 5.611,126.337C5.597,120.245 8.907,114.63 14.245,111.694L202.372,8.209C207.349,5.471 213.377,5.457 218.367,8.171L403.909,109.07C409.261,111.98 412.598,117.579 412.613,123.671C412.628,129.763 409.317,135.378 403.979,138.314ZM361.214,123.795L210.451,41.809L57.011,126.213L207.774,208.199L361.214,123.795ZM387.914,190.554C395.973,186.12 406.116,189.064 410.55,197.124C414.983,205.184 412.039,215.327 403.979,219.76L215.852,323.245C210.876,325.982 204.847,325.997 199.857,323.283L14.316,222.384C6.235,217.99 3.242,207.861 7.636,199.78C12.031,191.699 22.159,188.706 30.24,193.101L207.774,289.645L387.914,190.554ZM387.914,276.838C395.973,272.404 406.116,275.348 410.55,283.408C414.983,291.467 412.039,301.61 403.979,306.044L215.852,409.528C210.876,412.266 204.847,412.28 199.857,409.567L14.316,308.668C6.235,304.273 3.242,294.145 7.636,286.064C12.031,277.983 22.159,274.99 30.24,279.384L207.774,375.929L387.914,276.838Z"/>
</svg>
