<svg viewBox="0 0 417 417" xmlns:xlink="http://www.w3.org/1999/xlink">
    <path d="M321.472,66.342C378.978,91.591 386.614,164.988 352.182,205.351C317.75,245.713 251.78,246.053 204.956,206.108" style="fill:none;stroke:currentColor;stroke-width:31.25px;"/>
    <path d="M101.104,350.447C40.915,318.993 29.031,251.987 63.463,211.625C97.896,171.262 163.865,170.923 210.689,210.868" style="fill:none;stroke:currentColor;stroke-width:31.25px;"/>
    <path d="M303.269,17.189C325.15,15.454 344.272,31.161 345.944,52.243C347.615,73.324 331.207,91.848 309.326,93.583C287.445,95.318 268.323,79.611 266.652,58.529C264.98,37.448 281.388,18.924 303.269,17.189Z" style="stroke:currentColor;stroke-width:31.25px;"/>
    <path d="M115.149,320.178C137.03,318.443 156.152,334.15 157.823,355.231C159.495,376.313 143.087,394.837 121.206,396.571C99.325,398.306 80.203,382.599 78.531,361.518C76.86,340.437 93.268,321.913 115.149,320.178Z" style="stroke:currentColor;stroke-width:31.25px;"/>
</svg>
