<svg viewBox="0 0 417 417" version="1.1" xmlns="http://www.w3.org/2000/svg" fill="currentColor">
    <path d="M60.276,108.967L30.876,108.967C21.677,108.967 14.209,101.499 14.209,92.301C14.209,83.102 21.677,75.634 30.876,75.634L116.103,75.634L116.103,55.47C116.103,25.495 140.439,1.159 170.414,1.159L245.703,1.159C275.679,1.159 300.015,25.495 300.015,55.47L300.015,75.634L385.242,75.634C394.44,75.634 401.908,83.102 401.908,92.301C401.908,101.499 394.44,108.967 385.242,108.967L355.841,108.967L355.841,332.736C355.841,378.116 318.997,414.96 273.616,414.96L142.501,414.96C97.12,414.96 60.276,378.116 60.276,332.736L60.276,108.967ZM149.436,75.634L266.681,75.634L266.681,55.47C266.681,43.892 257.281,34.492 245.703,34.492L170.414,34.492C158.836,34.492 149.436,43.892 149.436,55.47L149.436,75.634ZM322.508,108.967L93.61,108.967L93.61,332.736C93.61,359.719 115.517,381.627 142.501,381.627L273.616,381.627C300.6,381.627 322.508,359.719 322.508,332.736L322.508,108.967ZM287.976,319.136C287.976,328.335 280.508,335.803 271.31,335.803C262.111,335.803 254.643,328.335 254.643,319.136L254.643,162.955C254.643,153.757 262.111,146.289 271.31,146.289C280.508,146.289 287.976,153.757 287.976,162.955L287.976,319.136ZM162.024,319.136C162.024,328.335 154.556,335.803 145.357,335.803C136.158,335.803 128.69,328.335 128.69,319.136L128.69,162.955C128.69,153.757 136.158,146.289 145.357,146.289C154.556,146.289 162.024,153.757 162.024,162.955L162.024,319.136ZM225,319.136C225,328.335 217.532,335.803 208.333,335.803C199.135,335.803 191.667,328.335 191.667,319.136L191.667,162.955C191.667,153.757 199.135,146.289 208.333,146.289C217.532,146.289 225,153.757 225,162.955L225,319.136Z"/>
</svg>
